<svg width="26" height="26" viewBox="0 0 26 26" fill="none" xmlns="http://www.w3.org/2000/svg">
<path fill-rule="evenodd" clip-rule="evenodd" d="M13 7.48006C14.6899 7.48006 15.8299 8.21006 16.4799 8.82006L19.0199 6.34006C17.4599 4.89006 15.4299 4.00006 13 4.00006C9.47996 4.00006 6.43996 6.02006 4.95996 8.96006L7.86996 11.2201C8.59996 9.05006 10.62 7.48006 13 7.48006Z" fill="#EA4335"/>
<path fill-rule="evenodd" clip-rule="evenodd" d="M21.64 13.1996C21.64 12.4596 21.58 11.9196 21.45 11.3596H13V14.6996H17.96C17.86 15.5296 17.32 16.7796 16.12 17.6196L18.96 19.8196C20.66 18.2496 21.64 15.9396 21.64 13.1996Z" fill="#4285F4"/>
<path fill-rule="evenodd" clip-rule="evenodd" d="M7.88 14.7796C7.69 14.2196 7.58 13.6196 7.58 12.9996C7.58 12.3796 7.69 11.7796 7.87 11.2196L4.96 8.95956C4.35 10.1796 4 11.5496 4 12.9996C4 14.4496 4.35 15.8196 4.96 17.0396L7.88 14.7796Z" fill="#FBBC05"/>
<path fill-rule="evenodd" clip-rule="evenodd" d="M13 22.0004C15.43 22.0004 17.47 21.2004 18.96 19.8204L16.12 17.6204C15.36 18.1504 14.34 18.5204 13 18.5204C10.62 18.5204 8.59997 16.9504 7.87997 14.7804L4.96997 17.0404C6.44997 19.9804 9.47997 22.0004 13 22.0004Z" fill="#34A853"/>
</svg>
